<?xml version="1.0" standalone="no"?>
<!DOCTYPE svg PUBLIC "-//W3C//DTD SVG 20010904//EN"
 "http://www.w3.org/TR/2001/REC-SVG-20010904/DTD/svg10.dtd">
<svg version="1.0" xmlns="http://www.w3.org/2000/svg"
 width="161.000000pt" height="161.000000pt" viewBox="0 0 161.000000 161.000000"
 preserveAspectRatio="xMidYMid meet">
<metadata>
Created by potrace 1.14, written by Peter Selinger 2001-2017
</metadata>
<g transform="translate(0.000000,161.000000) scale(0.100000,-0.100000)"
fill="#000000" stroke="none">
<path d="M1413 1530 c-61 -10 -120 -21 -131 -24 -23 -8 -25 -15 -47 -161 -19
-126 -28 -155 -50 -155 -11 0 -15 12 -15 50 l0 51 -62 -3 c-41 -2 -63 -7 -64
-15 -1 -7 -2 -18 -3 -24 -2 -21 -46 -5 -49 19 -3 20 -9 22 -66 22 l-62 0 4 35
c3 21 0 35 -7 35 -5 0 -39 -16 -74 -35 -35 -19 -66 -35 -68 -35 -3 0 -3 18 -1
40 4 40 4 40 -32 40 -35 0 -36 -1 -36 -40 0 -39 6 -45 38 -41 33 5 3 -21 -90
-75 -120 -69 -128 -72 -128 -45 0 17 -6 21 -35 21 -34 0 -35 -1 -35 -40 0 -37
-2 -40 -28 -40 -27 0 -28 2 -25 40 l3 40 -45 0 c-40 0 -46 -3 -62 -32 l-18
-33 -3 33 c-2 24 -8 32 -23 32 -15 0 -19 -7 -19 -35 0 -22 6 -37 17 -44 23
-12 13 -16 -86 -30 -41 -5 -79 -15 -84 -20 -8 -8 3 -64 37 -188 54 -205 84
-309 97 -340 l8 -23 473 -2 472 -3 38 -100 c21 -55 38 -103 38 -107 0 -5 -225
-8 -499 -8 -447 0 -499 -2 -505 -16 -9 -22 1 -34 29 -34 32 0 48 -29 29 -55
-23 -31 -17 -73 15 -106 38 -37 82 -39 116 -4 49 48 20 145 -43 145 -12 0 -22
5 -22 10 0 6 130 10 369 10 311 0 370 -2 381 -15 9 -11 8 -19 -4 -37 -25 -35
-20 -76 13 -109 58 -57 141 -23 141 59 0 41 -31 82 -63 82 -9 0 -17 5 -17 10
0 6 26 10 59 10 33 0 63 5 66 10 4 6 -17 74 -46 151 l-52 139 17 108 c97 603
126 781 130 783 0 0 61 10 135 22 142 23 168 37 145 75 -15 23 -39 23 -171 2z
m-725 -387 c-10 -2 -28 -2 -40 0 -13 2 -5 4 17 4 22 1 32 -1 23 -4z m512 -12
c0 -8 -124 -91 -136 -91 -3 0 -4 17 -2 38 l3 37 47 0 c26 0 53 6 59 13 15 14
29 16 29 3z m-204 -37 c-3 -9 -6 -35 -6 -58 0 -36 -4 -45 -25 -54 -36 -17
-109 -16 -98 1 10 16 13 38 4 33 -4 -3 -7 6 -7 19 0 13 3 22 7 19 9 -5 6 17
-4 33 -8 12 20 18 97 21 31 2 37 -1 32 -14z m-296 -14 c0 -5 -12 -10 -27 -9
l-28 1 25 8 c14 4 26 8 28 9 1 1 2 -3 2 -9z m-550 -66 c0 -7 -6 -15 -12 -17
-7 -3 2 -6 20 -6 33 -1 35 -4 46 -53 5 -23 3 -28 -14 -28 -20 0 -24 8 -20 48
1 17 -4 22 -24 22 -21 0 -25 -5 -28 -37 l-3 -38 -18 54 c-9 29 -14 57 -11 62
8 13 64 7 64 -7z m550 -39 c0 -20 -5 -25 -25 -25 -20 0 -25 5 -25 25 0 20 5
25 25 25 20 0 25 -5 25 -25z m-309 -11 c8 -24 3 -34 -22 -34 -14 0 -19 7 -19
29 0 22 4 29 17 27 9 -2 20 -11 24 -22z m769 -60 c0 -51 -24 -154 -36 -154
-11 0 -14 19 -14 79 0 67 -3 80 -17 84 -10 3 1 5 25 6 32 1 42 -3 42 -15z
m-372 -54 c-4 -67 -22 -69 -26 -2 -2 42 0 52 13 52 13 0 15 -10 13 -50z m69
28 c-3 -8 -6 -5 -6 6 -1 11 2 17 5 13 3 -3 4 -12 1 -19z m-497 -33 c0 -8 5
-15 10 -15 21 0 8 -16 -29 -37 l-39 -22 -6 27 c-4 15 -9 35 -12 45 -5 14 1 17
35 17 30 0 41 -4 41 -15z m-152 -63 c2 -33 7 -42 18 -38 8 3 14 -1 14 -8 0
-16 -22 -26 -57 -26 -23 0 -25 3 -19 31 3 17 6 45 6 61 0 23 4 29 18 26 12 -2
18 -15 20 -46z m222 -52 c0 -5 -13 -10 -30 -10 -16 0 -30 5 -30 10 0 6 14 10
30 10 17 0 30 -4 30 -10z m693 -72 c-8 -46 -13 -48 -13 -5 0 21 4 37 10 37 5
0 7 -14 3 -32z m-333 -38 c0 -42 -3 -50 -19 -50 -16 0 -19 7 -18 50 0 42 3 50
19 50 15 0 18 -8 18 -50z m-530 26 c0 -2 3 -11 6 -20 4 -10 -5 -20 -26 -31
-36 -19 -35 -19 -44 17 -5 22 -2 27 16 31 35 7 48 7 48 3z m98 -468 c30 -30 1
-98 -41 -98 -42 0 -78 66 -46 86 7 4 9 0 5 -13 -9 -27 29 -61 51 -47 32 20 38
41 19 63 -20 22 -9 30 12 9z m810 0 c30 -30 1 -98 -41 -98 -42 0 -78 66 -46
86 7 4 9 0 5 -13 -9 -27 29 -61 51 -47 32 20 38 41 19 63 -20 22 -9 30 12 9z"/>
</g>
</svg>
